<svg class="animated" id="freepik_stories-secure-server" xmlns="http://www.w3.org/2000/svg" viewBox="0 0 500 500" version="1.1" xmlns:xlink="http://www.w3.org/1999/xlink" xmlns:svgjs="http://svgjs.com/svgjs"><style>svg#freepik_stories-secure-server:not(.animated) .animable {opacity: 0;}svg#freepik_stories-secure-server.animated #freepik--background-complete--inject-1 {animation: 1s 1 forwards cubic-bezier(.36,-0.01,.5,1.38) lightSpeedRight;animation-delay: 0s;}svg#freepik_stories-secure-server.animated #freepik--Shadow--inject-1 {animation: 1s 1 forwards cubic-bezier(.36,-0.01,.5,1.38) zoomIn;animation-delay: 0s;}svg#freepik_stories-secure-server.animated #freepik--Character--inject-1 {animation: 1s 1 forwards cubic-bezier(.36,-0.01,.5,1.38) slideUp;animation-delay: 0s;}svg#freepik_stories-secure-server.animated #freepik--Server--inject-1 {animation: 1s 1 forwards cubic-bezier(.36,-0.01,.5,1.38) slideRight;animation-delay: 0s;}            @keyframes lightSpeedRight {              from {                transform: translate3d(50%, 0, 0) skewX(-20deg);                opacity: 0;              }              60% {                transform: skewX(10deg);                opacity: 1;              }              80% {                transform: skewX(-2deg);              }              to {                opacity: 1;                transform: translate3d(0, 0, 0);              }            }                    @keyframes zoomIn {                0% {                    opacity: 0;                    transform: scale(0.5);                }                100% {                    opacity: 1;                    transform: scale(1);                }            }                    @keyframes slideUp {                0% {                    opacity: 0;                    transform: translateY(30px);                }                100% {                    opacity: 1;                    transform: inherit;                }            }                    @keyframes slideRight {                0% {                    opacity: 0;                    transform: translateX(30px);                }                100% {                    opacity: 1;                    transform: translateX(0);                }            }        </style><g id="freepik--background-complete--inject-1" class="animable" style="transform-origin: 250px 226.87px;"><rect y="382.4" width="500" height="0.25" style="fill: rgb(235, 235, 235); transform-origin: 250px 382.525px;" id="elr8zahevc6h" class="animable"></rect><rect x="416.78" y="398.49" width="18.89" height="0.25" style="fill: rgb(235, 235, 235); transform-origin: 426.225px 398.615px;" id="el8bec5w026j6" class="animable"></rect><rect x="293.05" y="396.75" width="29.47" height="0.25" style="fill: rgb(235, 235, 235); transform-origin: 307.785px 396.875px;" id="eljsj5mco7q0h" class="animable"></rect><rect x="368.67" y="389.21" width="47.11" height="0.25" style="fill: rgb(235, 235, 235); transform-origin: 392.225px 389.335px;" id="elu71z96iss1c" class="animable"></rect><rect x="52.46" y="390.89" width="10.97" height="0.25" style="fill: rgb(235, 235, 235); transform-origin: 57.945px 391.015px;" id="eleh35xptogve" class="animable"></rect><rect x="72.33" y="390.89" width="38.56" height="0.25" style="fill: rgb(235, 235, 235); transform-origin: 91.61px 391.015px;" id="el3fair1e0sjy" class="animable"></rect><rect x="171" y="395.11" width="54.15" height="0.25" style="fill: rgb(235, 235, 235); transform-origin: 198.075px 395.235px;" id="elq63znwbuomb" class="animable"></rect><path d="M237,337.8H43.91a5.71,5.71,0,0,1-5.7-5.71V60.66A5.71,5.71,0,0,1,43.91,55H237a5.71,5.71,0,0,1,5.71,5.71V332.09A5.71,5.71,0,0,1,237,337.8ZM43.91,55.2a5.46,5.46,0,0,0-5.45,5.46V332.09a5.46,5.46,0,0,0,5.45,5.46H237a5.47,5.47,0,0,0,5.46-5.46V60.66A5.47,5.47,0,0,0,237,55.2Z" style="fill: rgb(235, 235, 235); transform-origin: 140.46px 196.4px;" id="elm64lp23k83r" class="animable"></path><path d="M453.31,337.8H260.21a5.72,5.72,0,0,1-5.71-5.71V60.66A5.72,5.72,0,0,1,260.21,55h193.1A5.71,5.71,0,0,1,459,60.66V332.09A5.71,5.71,0,0,1,453.31,337.8ZM260.21,55.2a5.47,5.47,0,0,0-5.46,5.46V332.09a5.47,5.47,0,0,0,5.46,5.46h193.1a5.47,5.47,0,0,0,5.46-5.46V60.66a5.47,5.47,0,0,0-5.46-5.46Z" style="fill: rgb(235, 235, 235); transform-origin: 356.75px 196.4px;" id="elmkk1fxvynd" class="animable"></path><g id="el99feofq95lh"><rect x="62.79" y="80.24" width="74.59" height="186.4" style="fill: rgb(230, 230, 230); transform-origin: 100.085px 173.44px; transform: rotate(180deg);" class="animable"></rect></g><g id="elg9dodq5gmh"><rect x="51.99" y="80.24" width="83.48" height="186.4" style="fill: rgb(245, 245, 245); transform-origin: 93.73px 173.44px; transform: rotate(180deg);" class="animable"></rect></g><g id="elu8g46zn6mfo"><rect x="9.14" y="140.31" width="169.18" height="66.26" style="fill: rgb(255, 255, 255); transform-origin: 93.73px 173.44px; transform: rotate(90deg);" class="animable"></rect></g><g id="el7475lz2b0hn"><rect x="154.34" y="80.24" width="74.59" height="186.4" style="fill: rgb(230, 230, 230); transform-origin: 191.635px 173.44px; transform: rotate(180deg);" class="animable"></rect></g><g id="elox6wx0qpro"><rect x="143.54" y="80.24" width="83.48" height="186.4" style="fill: rgb(245, 245, 245); transform-origin: 185.28px 173.44px; transform: rotate(180deg);" class="animable"></rect></g><g id="elsximvkik02"><rect x="100.69" y="140.31" width="169.18" height="66.26" style="fill: rgb(255, 255, 255); transform-origin: 185.28px 173.44px; transform: rotate(90deg);" class="animable"></rect></g><rect x="218.94" y="309.14" width="61.14" height="73.26" style="fill: rgb(224, 224, 224); transform-origin: 249.51px 345.77px;" id="ela0yi9q0kqvd" class="animable"></rect><polygon points="280.08 309.14 218.94 309.14 205.18 295.13 266.32 295.13 280.08 309.14" style="fill: rgb(224, 224, 224); transform-origin: 242.63px 302.135px;" id="elpthpiggs3ns" class="animable"></polygon><polygon points="183.16 295.13 122.03 295.13 110.48 309.14 171.62 309.14 183.16 295.13" style="fill: rgb(245, 245, 245); transform-origin: 146.82px 302.135px;" id="el1u7fko292j5" class="animable"></polygon><g id="elm4kst7o5wwa"><rect x="110.48" y="309.14" width="108.46" height="73.26" style="fill: rgb(245, 245, 245); transform-origin: 164.71px 345.77px; transform: rotate(180deg);" class="animable"></rect></g><g id="elbnliafakmxp"><rect x="211.08" y="328.71" width="7.86" height="34.13" style="fill: rgb(240, 240, 240); transform-origin: 215.01px 345.775px; transform: rotate(180deg);" class="animable"></rect></g><g id="elg4kqzqjqgho"><rect x="147.37" y="321.73" width="29.69" height="29.69" style="fill: rgb(240, 240, 240); transform-origin: 162.215px 336.575px; transform: rotate(-90deg);" class="animable"></rect></g><g id="el4qsvo1ohrfb"><rect x="110.61" y="321.73" width="29.69" height="29.69" style="fill: rgb(240, 240, 240); transform-origin: 125.455px 336.575px; transform: rotate(-90deg);" class="animable"></rect></g><g id="el8vhbvnq36ef"><rect x="161" y="339.62" width="2.42" height="29.69" style="fill: rgb(240, 240, 240); transform-origin: 162.21px 354.465px; transform: rotate(-90deg);" class="animable"></rect></g><g id="elap8bd8knl4d"><rect x="124.24" y="339.62" width="2.42" height="29.69" style="fill: rgb(240, 240, 240); transform-origin: 125.45px 354.465px; transform: rotate(-90deg);" class="animable"></rect></g><g id="eluzw6gy74x7r"><rect x="161" y="346.7" width="2.42" height="29.69" style="fill: rgb(240, 240, 240); transform-origin: 162.21px 361.545px; transform: rotate(-90deg);" class="animable"></rect></g><g id="elwjr1oaxwk2a"><rect x="124.24" y="346.7" width="2.42" height="29.69" style="fill: rgb(240, 240, 240); transform-origin: 125.45px 361.545px; transform: rotate(-90deg);" class="animable"></rect></g><g id="elbw4v3ra6cpi"><rect x="161" y="353.79" width="2.42" height="29.69" style="fill: rgb(240, 240, 240); transform-origin: 162.21px 368.635px; transform: rotate(-90deg);" class="animable"></rect></g><g id="el816dt28i3pm"><rect x="124.24" y="353.79" width="2.42" height="29.69" style="fill: rgb(240, 240, 240); transform-origin: 125.45px 368.635px; transform: rotate(-90deg);" class="animable"></rect></g><rect x="218.94" y="328.71" width="17.61" height="34.13" style="fill: rgb(230, 230, 230); transform-origin: 227.745px 345.775px;" id="elwvm3fb0906p" class="animable"></rect><g id="ellksxxmdqg59"><rect x="303.22" y="217.67" width="29.36" height="164.73" style="fill: rgb(230, 230, 230); transform-origin: 317.9px 300.035px; transform: rotate(180deg);" class="animable"></rect></g><polygon points="311.06 382.4 303.22 382.4 303.22 353.93 319.28 353.93 311.06 382.4" style="fill: rgb(245, 245, 245); transform-origin: 311.25px 368.165px;" id="el1klctjbcus4h" class="animable"></polygon><g id="el0sqkxclzdf5h"><rect x="387.42" y="217.67" width="29.36" height="164.73" style="fill: rgb(230, 230, 230); transform-origin: 402.1px 300.035px; transform: rotate(180deg);" class="animable"></rect></g><g id="el2pty0ys6cyf"><rect x="303.22" y="217.67" width="91.04" height="154.93" style="fill: rgb(245, 245, 245); transform-origin: 348.74px 295.135px; transform: rotate(180deg);" class="animable"></rect></g><polygon points="386.42 382.4 394.26 382.4 394.26 353.93 378.2 353.93 386.42 382.4" style="fill: rgb(245, 245, 245); transform-origin: 386.23px 368.165px;" id="eltp50cfw6bt9" class="animable"></polygon><g id="elwxbpgfmtgg"><rect x="309.3" y="298.51" width="78.87" height="67.65" style="fill: rgb(240, 240, 240); transform-origin: 348.735px 332.335px; transform: rotate(180deg);" class="animable"></rect></g><g id="eljrehtht729"><rect x="334.34" y="298.51" width="53.84" height="67.65" style="fill: rgb(230, 230, 230); transform-origin: 361.26px 332.335px; transform: rotate(180deg);" class="animable"></rect></g><g id="eljylgi880zw"><rect x="309.3" y="224.85" width="78.87" height="67.65" style="fill: rgb(240, 240, 240); transform-origin: 348.735px 258.675px; transform: rotate(180deg);" class="animable"></rect></g><g id="eloruvl2dsqnb"><rect x="334.34" y="224.85" width="53.84" height="67.65" style="fill: rgb(230, 230, 230); transform-origin: 361.26px 258.675px; transform: rotate(180deg);" class="animable"></rect></g><path d="M361.26,276.62c0,8.73-7.43,15.88-16.51,15.88h-8.19c-9.08,0-16.5-7.15-16.5-15.88Z" style="fill: rgb(255, 255, 255); transform-origin: 340.66px 284.56px;" id="elsbx7ua4sif" class="animable"></path><path d="M361.26,265.51c0,8.73-7.43,15.88-16.51,15.88h-8.19c-9.08,0-16.5-7.15-16.5-15.88Z" style="fill: rgb(255, 255, 255); transform-origin: 340.66px 273.45px;" id="el9l0xdr1lhyd" class="animable"></path><path d="M353,320.33h24.28s-4.22,10.23-4.22,16.24,18.47,29.6-7.92,29.6-7.93-23.58-7.93-29.6S353,320.33,353,320.33Z" style="fill: rgb(245, 245, 245); transform-origin: 365.138px 343.25px;" id="elep6sicitj3" class="animable"></path><path d="M361.26,254.39c0,8.74-7.43,15.89-16.51,15.89h-8.19c-9.08,0-16.5-7.15-16.5-15.89Z" style="fill: rgb(255, 255, 255); transform-origin: 340.66px 262.335px;" id="elosa4e8a6xg" class="animable"></path><path d="M354,205.73c-.92-26.06-1.91-73.84.11-86.9l3.29-2.55s-.72,23.93-1.1,63.84-.85,19.68-.44,25.61Z" style="fill: rgb(230, 230, 230); transform-origin: 355.164px 161.017px;" id="elqt9vnd60sn" class="animable"></path><path d="M346.47,136.46c-7.63-5.51-23.7-9.43-40.34-9.41-6.54,0,19.45,6.41,30,13.47,8.18,5.49,17.19,14.72,20.13,19.84C354.82,149.58,354.11,142,346.47,136.46Z" style="fill: rgb(230, 230, 230); transform-origin: 330.674px 143.705px;" id="elj7qtncaxtr" class="animable"></path><path d="M361.79,150.81c7-5.73,22.63-10.15,39.24-10.64,6.53-.2-18.71,7-28.44,14.38-7.55,5.73-15.54,15.22-17.9,20.42C354.91,164.17,354.77,156.55,361.79,150.81Z" style="fill: rgb(230, 230, 230); transform-origin: 378.392px 157.568px;" id="elk38q4mb09lq" class="animable"></path><path d="M355.27,217.67h0a12.11,12.11,0,0,1-12.09-11.42l-1.07-8.79h26.32l-1.07,8.79A12.11,12.11,0,0,1,355.27,217.67Z" style="fill: rgb(240, 240, 240); transform-origin: 355.27px 207.565px;" id="elecj1wfi49co" class="animable"></path><polygon points="370.13 201.67 340.41 201.67 339.56 193.96 370.99 193.96 370.13 201.67" style="fill: rgb(240, 240, 240); transform-origin: 355.275px 197.815px;" id="elfste69z0jxu" class="animable"></polygon></g><g id="freepik--Shadow--inject-1" class="animable" style="transform-origin: 250px 416.24px;"><ellipse id="freepik--path--inject-1" cx="250" cy="416.24" rx="193.89" ry="11.32" style="fill: rgb(245, 245, 245); transform-origin: 250px 416.24px;" class="animable"></ellipse></g><g id="freepik--Character--inject-1" class="animable" style="transform-origin: 305.95px 257.97px;"><polygon points="354.3 397.88 347.11 399.4 342.24 383.04 349.43 381.52 354.3 397.88" style="fill: rgb(127, 62, 59); transform-origin: 348.27px 390.46px;" id="el2qn4e4bkicr" class="animable"></polygon><path d="M346.66,398.62l7.85-1.65a.66.66,0,0,1,.72.36l2.76,6.09a1.07,1.07,0,0,1-.76,1.5c-2.85.55-7,1.24-10.53,2-4.16.88-4.74,1.77-9.69,2.4-3,.38-4.2-2.54-3-3,5.55-2,6.8-2.77,11-6.79A3.37,3.37,0,0,1,346.66,398.62Z" style="fill: rgb(38, 50, 56); transform-origin: 345.82px 403.156px;" id="elikn5r77uk5n" class="animable"></path><g id="el1f3x136npwm"><polygon points="342.24 383.04 344.75 391.48 351.94 389.96 349.43 381.53 342.24 383.04" style="opacity: 0.2; transform-origin: 347.09px 386.505px;" class="animable"></polygon></g><path d="M302.22,163.84c-1.47,4.87-3.08,9.61-4.83,14.37s-3.63,9.45-5.85,14.2l-.87,1.79-.95,1.83c-.32.61-.7,1.18-1.05,1.78s-.7,1.17-1.1,1.73a54.45,54.45,0,0,1-5,6.4,55.86,55.86,0,0,1-5.75,5.56c-1,.86-2.06,1.67-3.15,2.44s-2.14,1.49-3.42,2.23l-3.54-4.71c.69-.8,1.53-1.73,2.27-2.63s1.47-1.86,2.2-2.79c1.43-1.88,2.78-3.81,4-5.76a65.16,65.16,0,0,0,3.41-6c.52-1,1-2,1.44-3.07l.66-1.55.64-1.63c1.69-4.43,3.27-9.1,4.82-13.77l4.68-14Z" style="fill: rgb(128, 62, 60); transform-origin: 284.465px 188.215px;" id="elhhdj5z31yg8" class="animable"></path><path d="M307.47,155.91c2.53,6.73-10.92,30.67-10.92,30.67l-15.12-11.66a116.2,116.2,0,0,1,9.39-18.24C296.14,148.75,304.69,148.53,307.47,155.91Z" style="fill: rgb(75, 42, 123); transform-origin: 294.608px 168.564px;" id="elskvwi087lcj" class="animable"></path><g id="eltxoxkkt12t"><path d="M304.51,162.56c-4.78,2-11.27,9.72-13.3,19.9l5.34,4.12s8-14.16,10.47-23.76A2.31,2.31,0,0,0,304.51,162.56Z" style="opacity: 0.2; transform-origin: 299.115px 174.442px;" class="animable"></path></g><path d="M298.54,150.77s-8.87,16.78-.44,59.06h40.21c.27-6.18-3.61-30.37,2.35-59.45a105.49,105.49,0,0,0-13.46-1.7,147.52,147.52,0,0,0-17.09,0A74.77,74.77,0,0,0,298.54,150.77Z" style="fill: rgb(75, 42, 123); transform-origin: 317.562px 179.131px;" id="el8dswdr2de8f" class="animable"></path><polygon points="253.81 216.58 257.9 220.28 263.96 218.67 259.85 211.36 253.81 216.58" style="fill: rgb(127, 62, 59); transform-origin: 258.885px 215.82px;" id="elyueite18zp9" class="animable"></polygon><path d="M268.72,211.78l-8.87-.42,4.11,7.31s6.59.7,7.22-4.17Z" style="fill: rgb(127, 62, 59); transform-origin: 265.515px 215.032px;" id="elhlb1v0a2n1w" class="animable"></path><path d="M325.5,129.43c-1.07,5.5-2.15,15.58,1.7,19.25,0,0-1.73,3.69-11.95,3.69-9.34,0-5.14-3.69-5.14-3.69,6.13-1.46,6-6,4.9-10.29Z" style="fill: rgb(127, 62, 59); transform-origin: 318.184px 140.9px;" id="el0sti1dkx4xp" class="animable"></path><g id="el5eyk1ves8h4"><path d="M321.23,133.09l-6.21,5.3a18,18,0,0,1,.52,3c1.5,2.33,5.59-1.09,6.34-4.67A8.33,8.33,0,0,0,321.23,133.09Z" style="opacity: 0.2; transform-origin: 318.454px 137.622px;" class="animable"></path></g><path d="M300.83,117.35c-2.05,3.45,2.46,13,7.68,12.13S304.73,110.82,300.83,117.35Z" style="fill: rgb(38, 50, 56); transform-origin: 305.211px 122.724px;" id="elvhrr293iga" class="animable"></path><path d="M323,120.79c1.09,7.38,2.1,11.64-.79,16.16-4.34,6.79-14,5.35-17.32-1.55-2.95-6.22-4.24-17.24,2.28-21.65A10.18,10.18,0,0,1,323,120.79Z" style="fill: rgb(127, 62, 59); transform-origin: 313.284px 126.673px;" id="el0i1vdsj5z0j" class="animable"></path><path d="M323.65,111.06l-6.37,4.64c3.84,4.57-.52,14.56,5.53,12.29C325.58,127,332.73,116.1,323.65,111.06Z" style="fill: rgb(38, 50, 56); transform-origin: 322.694px 119.69px;" id="elhtmcehi52ci" class="animable"></path><path d="M316,105.37c-9.67,2.34-10.53-.45-9.88-4.07-7.23,1.19-12.64,6.89-8.44,13.78,4.66,7.65,18.88,1.44,21.39,1.39l3.61-.88C330.88,113.2,328.08,102.46,316,105.37Z" style="fill: rgb(38, 50, 56); transform-origin: 311.783px 110.098px;" id="elgft09lybzq4" class="animable"></path><path d="M324.62,124.65h0c-1.83,0-7.49,0-7.55,0a.16.16,0,0,1-.16-.16.15.15,0,0,1,.16-.16c.06,0,5.72,0,7.55,0a.16.16,0,0,1,.16.16A.16.16,0,0,1,324.62,124.65Z" style="fill: rgb(255, 255, 255); transform-origin: 320.845px 124.49px;" id="el9iordgzgt45" class="animable"></path><path d="M328,128.12a7.12,7.12,0,0,1-3.67,4c-2.27,1-3.78-.91-3.46-3.25.28-2.1,1.8-5.17,4.23-5.21A3.18,3.18,0,0,1,328,128.12Z" style="fill: rgb(127, 62, 59); transform-origin: 324.548px 128.026px;" id="eloiajzqfap9" class="animable"></path><polygon points="313.78 407.14 306.44 407.14 306.19 390.12 313.54 390.12 313.78 407.14" style="fill: rgb(127, 62, 59); transform-origin: 309.985px 398.63px;" id="elh0akx9adf9h" class="animable"></polygon><path d="M306.14,406.29h8a.62.62,0,0,1,.62.5l1.45,6.53a1.06,1.06,0,0,1-1.05,1.3c-2.9-.05-7.08-.22-10.72-.22-4.25,0-7.92.24-12.91.24-3,0-3.85-3.05-2.59-3.33,5.75-1.26,10.44-1.39,15.4-4.45A3.35,3.35,0,0,1,306.14,406.29Z" style="fill: rgb(38, 50, 56); transform-origin: 302.307px 410.465px;" id="elh8j06edz5j" class="animable"></path><g id="elmi9y4pjpi8c"><polygon points="306.19 390.13 306.32 398.9 313.67 398.9 313.54 390.13 306.19 390.13" style="opacity: 0.2; transform-origin: 309.93px 394.515px;" class="animable"></polygon></g><path d="M303.11,407.41a2.27,2.27,0,0,1-1.49-.15,1.09,1.09,0,0,1-.51-.87.57.57,0,0,1,.23-.55c.74-.55,3.38.54,3.68.67a.18.18,0,0,1,.1.17.17.17,0,0,1-.11.16A9.12,9.12,0,0,1,303.11,407.41Zm-1.34-1.36a.41.41,0,0,0-.22.08.19.19,0,0,0-.08.22.68.68,0,0,0,.34.6,3.6,3.6,0,0,0,2.65-.28A7.18,7.18,0,0,0,301.77,406.05Z" style="fill: rgb(75, 42, 123); transform-origin: 303.112px 406.579px;" id="ellohpx1z6ch" class="animable"></path><path d="M305,406.85h-.08c-.84-.29-2.58-1.69-2.55-2.54a.57.57,0,0,1,.48-.55,1,1,0,0,1,.79.11c1,.57,1.49,2.68,1.51,2.77a.2.2,0,0,1-.06.18A.19.19,0,0,1,305,406.85Zm-2-2.77h-.08c-.22.07-.23.18-.23.22,0,.51,1.13,1.59,2,2a4.24,4.24,0,0,0-1.24-2.18A.58.58,0,0,0,303,404.08Z" style="fill: rgb(75, 42, 123); transform-origin: 303.761px 405.287px;" id="el4hvamzl2rr" class="animable"></path><path d="M298.1,209.83s-5.4,68.91-6.41,91.83c-1.06,23.83,12.24,95.13,12.24,95.13h11.95s-3.94-66.13-1.88-89.46c2.24-25.44,10.53-97.5,10.53-97.5Z" style="fill: rgb(38, 50, 56); transform-origin: 308.08px 303.31px;" id="elz2bg9hii4xn" class="animable"></path><g id="elu7l1la1zso"><path d="M310.15,264a149.49,149.49,0,0,0,5.4,27.43c1.84-18.09,4.54-42.4,6.5-59.77C317.45,234.67,308.33,243.38,310.15,264Z" style="opacity: 0.2; transform-origin: 315.982px 261.545px;" class="animable"></path></g><path d="M312,209.83s3.07,68.68,7.76,90.2c5.12,23.57,20.42,90.26,20.42,90.26l13.47-2.84s-9.08-63.23-12-86.56c-3.17-25.33-3.7-91.06-3.7-91.06Z" style="fill: rgb(38, 50, 56); transform-origin: 332.825px 300.06px;" id="elitvv7tgvqhd" class="animable"></path><polygon points="354.58 387.56 340.07 390.61 337.65 385.4 353.62 381.57 354.58 387.56" style="fill: rgb(75, 42, 123); transform-origin: 346.115px 386.09px;" id="elyi9oznbpjd" class="animable"></polygon><polygon points="318.19 397.09 303.36 397.09 302.06 391.49 318.44 391.78 318.19 397.09" style="fill: rgb(75, 42, 123); transform-origin: 310.25px 394.29px;" id="elg3k8d4i542f" class="animable"></polygon><path d="M312.85,125.06c.13.59-.08,1.14-.47,1.22s-.81-.33-.93-.92.09-1.14.47-1.22S312.73,124.47,312.85,125.06Z" style="fill: rgb(38, 50, 56); transform-origin: 312.152px 125.21px;" id="eluor7ixaijg" class="animable"></path><path d="M306.15,126.48c.12.59-.09,1.14-.48,1.22s-.8-.33-.93-.92.09-1.15.48-1.23S306,125.89,306.15,126.48Z" style="fill: rgb(38, 50, 56); transform-origin: 305.443px 126.625px;" id="el308ld2wn0m" class="animable"></path><path d="M307.89,126.42a21.45,21.45,0,0,1-1.76,5.67,3.49,3.49,0,0,0,2.95-.07Z" style="fill: rgb(99, 15, 15); transform-origin: 307.605px 129.402px;" id="elhp76yah13l" class="animable"></path><path d="M310.5,134.37a.18.18,0,1,1-.06-.35,4.81,4.81,0,0,0,3.55-2.5.18.18,0,0,1,.23-.1.18.18,0,0,1,.09.24A5.06,5.06,0,0,1,310.5,134.37Z" style="fill: rgb(38, 50, 56); transform-origin: 312.294px 132.894px;" id="elbe7jnrjrvcm" class="animable"></path><path d="M316,119.85a.35.35,0,0,1-.31-.06,2.84,2.84,0,0,0-2.53-.46.36.36,0,0,1-.26-.67,3.55,3.55,0,0,1,3.21.56.35.35,0,0,1,.08.49A.43.43,0,0,1,316,119.85Z" style="fill: rgb(38, 50, 56); transform-origin: 314.473px 119.18px;" id="elvkziiwihwxp" class="animable"></path><path d="M302.09,122a.3.3,0,0,1-.15-.05.36.36,0,0,1-.1-.49,3.5,3.5,0,0,1,2.78-1.68.36.36,0,0,1,0,.71h0a2.82,2.82,0,0,0-2.19,1.35A.34.34,0,0,1,302.09,122Z" style="fill: rgb(38, 50, 56); transform-origin: 303.352px 120.892px;" id="elg8joef89hdf" class="animable"></path><path d="M334.7,149l-1.9-.17a.39.39,0,0,0-.4.31c-5.28,28.36-2.32,58.48-2.32,58.48h2.1a270.14,270.14,0,0,1,2.85-58.2A.36.36,0,0,0,334.7,149Z" style="fill: rgb(38, 50, 56); transform-origin: 332.144px 178.225px;" id="elu8f917q2x9" class="animable"></path><path d="M332.48,207.64a.68.68,0,0,0-.67-.68h-1.45a.69.69,0,0,0-.68.68.66.66,0,0,0,.52.64v1.8a.89.89,0,0,0,1.77,0v-1.8A.66.66,0,0,0,332.48,207.64Z" style="fill: rgb(255, 255, 255); transform-origin: 331.08px 208.918px;" id="elo8rkcr06ihe" class="animable"></path><path d="M302.87,149.4l-1.88.35a.37.37,0,0,0-.3.32c-4,28.38.38,57.57.38,57.57h2.09c-3.12-30.89-.35-54.16.14-57.83A.37.37,0,0,0,302.87,149.4Z" style="fill: rgb(38, 50, 56); transform-origin: 301.154px 178.517px;" id="eluj13t8l9coi" class="animable"></path><path d="M303.47,207.64a.73.73,0,0,0-.71-.68h-1.45a.64.64,0,0,0-.64.68.69.69,0,0,0,.54.64l.09,1.8a.93.93,0,0,0,.92.88.84.84,0,0,0,.85-.88l-.09-1.8A.63.63,0,0,0,303.47,207.64Z" style="fill: rgb(255, 255, 255); transform-origin: 302.07px 208.96px;" id="elkfs5hp8sdbr" class="animable"></path><path d="M343.93,400.35a2.35,2.35,0,0,1-1.49.16,1.07,1.07,0,0,1-.68-.75.58.58,0,0,1,.1-.58c.62-.69,3.42-.17,3.74-.1a.16.16,0,0,1,.14.14.17.17,0,0,1-.07.18A9.71,9.71,0,0,1,343.93,400.35Zm-1.6-1.05a.43.43,0,0,0-.2.12s-.07.1,0,.23a.69.69,0,0,0,.45.52,3.64,3.64,0,0,0,2.55-.82A7,7,0,0,0,342.33,399.3Z" style="fill: rgb(75, 42, 123); transform-origin: 343.734px 399.696px;" id="el2s3668cmibv" class="animable"></path><path d="M345.63,399.42h-.09c-.87-.12-2.87-1.12-3-2a.59.59,0,0,1,.37-.64,1,1,0,0,1,.79-.06c1.07.36,2,2.32,2.05,2.4a.19.19,0,0,1,0,.19Zm-2.5-2.31-.08,0c-.2.11-.18.22-.18.26.09.5,1.43,1.32,2.36,1.6-.3-.57-1-1.66-1.67-1.89A.63.63,0,0,0,343.13,397.11Z" style="fill: rgb(75, 42, 123); transform-origin: 344.154px 398.043px;" id="el5uq9rhe2qwh" class="animable"></path><path d="M313.92,130.07c-2.37.5-4.81-1.5-5.43-4.45-.55-2.63.67-4.39,3.44-5s4.6.54,5.16,3.16C317.71,126.76,316.29,129.57,313.92,130.07ZM312,121c-1.81.38-3.84,1.49-3.18,4.59.58,2.78,2.85,4.67,5,4.2s3.51-3.1,2.92-5.88C316.11,120.77,313.81,120.57,312,121Z" style="fill: rgb(255, 255, 255); transform-origin: 312.798px 125.303px;" id="eldgw0uto37tu" class="animable"></path><path d="M304.21,132.12c-2,.42-4.12-1.64-4.74-4.59-.75-3.55,1.4-4.55,2.75-4.84s3.72-.23,4.47,3.31C307.31,129,306.2,131.7,304.21,132.12ZM302.29,123c-1.51.32-3.16,1.35-2.51,4.45.59,2.78,2.55,4.73,4.36,4.34s2.82-3,2.23-5.73C305.72,123,303.79,122.69,302.29,123Z" style="fill: rgb(255, 255, 255); transform-origin: 303.089px 127.378px;" id="el8fcc9jwwkbi" class="animable"></path><path d="M308.64,123.78h-.08a2.6,2.6,0,0,0-2.62.55.15.15,0,0,1-.22,0,.16.16,0,0,1,0-.23,2.9,2.9,0,0,1,2.92-.61.16.16,0,0,1,.11.19A.18.18,0,0,1,308.64,123.78Z" style="fill: rgb(255, 255, 255); transform-origin: 307.213px 123.854px;" id="elsw7lu6xgu1" class="animable"></path><polygon points="315.87 152.36 317.33 151.3 320.46 154.3 315.87 152.36" style="fill: rgb(38, 50, 56); transform-origin: 318.165px 152.8px;" id="elm89012nhkjm" class="animable"></polygon><path d="M317.33,151.3s2.58,3.61,3.08,6.22c3.09-1.28,8.91-4.48,9.69-9a13.48,13.48,0,0,1-3.19-1.5S323.8,149.66,317.33,151.3Z" style="fill: rgb(255, 255, 255); transform-origin: 323.715px 152.27px;" id="elpm0lbeiszl" class="animable"></path><polygon points="315.87 152.36 315.26 151.13 311.22 154.3 315.87 152.36" style="fill: rgb(38, 50, 56); transform-origin: 313.545px 152.715px;" id="elgfvo8n4lpht" class="animable"></polygon><path d="M315.26,151.14a10,10,0,0,0-3,5.75c-3.08-1.28-4.29-5.45-3.49-8.23a18.46,18.46,0,0,1,3.66-1.2A3.56,3.56,0,0,0,315.26,151.14Z" style="fill: rgb(255, 255, 255); transform-origin: 311.895px 152.175px;" id="elepl8g6olw27" class="animable"></path><polygon points="310.38 214.19 315.61 219.7 320.85 217.24 316.42 208.96 310.38 214.19" style="fill: rgb(127, 62, 59); transform-origin: 315.615px 214.33px;" id="elxhu4zuh11vm" class="animable"></polygon><path d="M325.29,209.38l-8.87-.42,4.43,8.28s6.27-.27,6.9-5.13Z" style="fill: rgb(127, 62, 59); transform-origin: 322.085px 213.1px;" id="el31c9ca65qsl" class="animable"></path><path d="M348,160.73c1.31,5.43,2.47,10.86,3.51,16.35q.78,4.11,1.46,8.26c.47,2.77.88,5.55,1.22,8.45a13.06,13.06,0,0,1,.13,1.65,10.06,10.06,0,0,1-.12,1.9,11.9,11.9,0,0,1-1.07,3.45,16,16,0,0,1-3.66,4.76,31.34,31.34,0,0,1-8.2,5.17,66.49,66.49,0,0,1-16.86,4.84l-1.47-5.7c2.4-1,4.92-2.1,7.29-3.29a69.35,69.35,0,0,0,6.82-3.77,25,25,0,0,0,5.38-4.32,5.66,5.66,0,0,0,1.2-1.94,1.36,1.36,0,0,0,.06-.52.43.43,0,0,0,0-.17,1.5,1.5,0,0,1-.1-.42c-1.06-5.18-2.37-10.59-3.58-15.93s-2.45-10.76-3.57-16.14Z" style="fill: rgb(128, 62, 60); transform-origin: 338.633px 188.145px;" id="elistkfdz5f9j" class="animable"></path><path d="M340.66,150.38c10,1.79,14.42,26.81,14.42,26.81L339,187.05s-5.11-14.76-4.84-24.05C334.44,154.14,333.07,149,340.66,150.38Z" style="fill: rgb(75, 42, 123); transform-origin: 344.615px 168.604px;" id="elwiy1apjby9" class="animable"></path></g><g id="freepik--Server--inject-1" class="animable" style="transform-origin: 221.68px 262.6px;"><rect x="169.9" y="222.37" width="102.97" height="193.86" style="fill: rgb(75, 42, 123); transform-origin: 221.385px 319.3px;" id="el0qf5wgmki86" class="animable"></rect><rect x="179.37" y="220.01" width="112.61" height="2.37" style="fill: rgb(75, 42, 123); transform-origin: 235.675px 221.195px;" id="elfgf01isx6b5" class="animable"></rect><g id="el6x9nmrznzmo"><rect x="179.37" y="220.01" width="112.61" height="2.37" style="opacity: 0.3; transform-origin: 235.675px 221.195px;" class="animable"></rect></g><g id="elh7onzlu06i5"><rect x="272.87" y="222.37" width="28.58" height="193.86" style="fill: rgb(75, 42, 123); transform-origin: 287.16px 319.3px; transform: rotate(180deg);" class="animable"></rect></g><g id="elkb1ptzpo6j9"><rect x="272.87" y="222.37" width="28.58" height="193.86" style="opacity: 0.2; transform-origin: 287.16px 319.3px; transform: rotate(180deg);" class="animable"></rect></g><g id="el9ylahxtt7h5"><rect x="257.87" y="231.62" width="7.62" height="7.66" rx="0.93" style="opacity: 0.1; transform-origin: 261.68px 235.45px;" class="animable"></rect></g><g id="elekey39wct2"><rect x="242.15" y="231.62" width="7.62" height="7.66" rx="0.93" style="opacity: 0.3; transform-origin: 245.96px 235.45px;" class="animable"></rect></g><g id="ela9o9uewfmaf"><rect x="226.44" y="231.62" width="7.62" height="7.66" rx="0.93" style="opacity: 0.3; transform-origin: 230.25px 235.45px;" class="animable"></rect></g><g id="elpoo0xj7ezqp"><rect x="210.72" y="231.62" width="7.62" height="7.66" rx="0.93" style="opacity: 0.1; transform-origin: 214.53px 235.45px;" class="animable"></rect></g><g id="elgcvtp4e16pc"><rect x="195.01" y="231.62" width="7.62" height="7.66" rx="0.93" style="opacity: 0.3; transform-origin: 198.82px 235.45px;" class="animable"></rect></g><g id="el0duz0dbtmw5o"><rect x="179.29" y="231.62" width="7.62" height="7.66" rx="0.93" style="opacity: 0.3; transform-origin: 183.1px 235.45px;" class="animable"></rect></g><g id="ela0cvdtbet3c"><g style="opacity: 0.1; transform-origin: 221.385px 258.845px;" class="animable"><rect x="173.26" y="243.67" width="96.25" height="30.35" id="eldmfsx1imylk" class="animable" style="transform-origin: 221.385px 258.845px;"></rect></g></g><rect x="260.05" y="248.01" width="5.31" height="21.68" rx="1.3" style="fill: rgb(75, 42, 123); transform-origin: 262.705px 258.85px;" id="elybzl1mb5boo" class="animable"></rect><g id="elwfgo040pf2"><rect x="249.1" y="248.01" width="5.31" height="21.68" rx="1.3" style="opacity: 0.1; transform-origin: 251.755px 258.85px;" class="animable"></rect></g><rect x="238.14" y="248.01" width="5.31" height="21.68" rx="1.3" style="fill: rgb(75, 42, 123); transform-origin: 240.795px 258.85px;" id="el7azs1uvzm03" class="animable"></rect><rect x="227.18" y="248.01" width="5.31" height="21.68" rx="1.3" style="fill: rgb(75, 42, 123); transform-origin: 229.835px 258.85px;" id="el5vhyy9hel7" class="animable"></rect><g id="elwkp15rl3m7p"><path d="M200.83,254a3.5,3.5,0,1,1,3.5,3.5A3.51,3.51,0,0,1,200.83,254Z" style="fill: rgb(255, 255, 255); opacity: 0.3; transform-origin: 204.33px 254px;" class="animable"></path></g><g id="eli5nvqnlakw"><path d="M217.84,263.69a3.5,3.5,0,1,1-3.5-3.51A3.5,3.5,0,0,1,217.84,263.69Z" style="opacity: 0.1; transform-origin: 214.34px 263.68px;" class="animable"></path></g><g id="el8hm6zz5d39s"><path d="M210.84,254a3.5,3.5,0,1,1,3.5,3.5A3.51,3.51,0,0,1,210.84,254Z" style="opacity: 0.1; transform-origin: 214.34px 254px;" class="animable"></path></g><g id="elscleq1p35t"><path d="M207.83,263.69a3.5,3.5,0,1,1-3.5-3.51A3.5,3.5,0,0,1,207.83,263.69Z" style="opacity: 0.1; transform-origin: 204.33px 263.68px;" class="animable"></path></g><g id="el603g1pxcb4a"><circle cx="186.88" cy="258.85" r="7.59" style="fill: rgb(255, 255, 255); opacity: 0.3; transform-origin: 186.88px 258.85px; transform: rotate(-45deg);" class="animable"></circle></g><g id="elwl73wdufydt"><g style="opacity: 0.1; transform-origin: 221.385px 293.355px;" class="animable"><rect x="173.26" y="278.18" width="96.25" height="30.35" id="elaaass4jtgie" class="animable" style="transform-origin: 221.385px 293.355px;"></rect></g></g><rect x="260.05" y="282.52" width="5.31" height="21.68" rx="1.3" style="fill: rgb(75, 42, 123); transform-origin: 262.705px 293.36px;" id="elikky49e7mq" class="animable"></rect><g id="eleptrsj5mpjs"><rect x="249.1" y="282.52" width="5.31" height="21.68" rx="1.3" style="opacity: 0.1; transform-origin: 251.755px 293.36px;" class="animable"></rect></g><rect x="238.14" y="282.52" width="5.31" height="21.68" rx="1.3" style="fill: rgb(75, 42, 123); transform-origin: 240.795px 293.36px;" id="elt83f3rszvbl" class="animable"></rect><rect x="227.18" y="282.52" width="5.31" height="21.68" rx="1.3" style="fill: rgb(75, 42, 123); transform-origin: 229.835px 293.36px;" id="elm5b03847xok" class="animable"></rect><g id="elbcvanoj8lro"><path d="M200.83,288.52a3.5,3.5,0,1,1,3.5,3.5A3.5,3.5,0,0,1,200.83,288.52Z" style="fill: rgb(255, 255, 255); opacity: 0.3; transform-origin: 204.33px 288.52px;" class="animable"></path></g><g id="elnvkvr1djse"><circle cx="214.34" cy="298.2" r="3.5" style="fill: rgb(255, 255, 255); opacity: 0.3; transform-origin: 214.34px 298.2px;" class="animable"></circle></g><g id="elllzu3d7xst"><path d="M210.84,288.52a3.5,3.5,0,1,1,3.5,3.5A3.5,3.5,0,0,1,210.84,288.52Z" style="opacity: 0.1; transform-origin: 214.34px 288.52px;" class="animable"></path></g><g id="elaelto15hyqq"><circle cx="204.33" cy="298.2" r="3.5" style="opacity: 0.1; transform-origin: 204.33px 298.2px;" class="animable"></circle></g><g id="el2mtj5jdvasv"><circle cx="186.88" cy="293.36" r="7.59" style="fill: rgb(255, 255, 255); opacity: 0.3; transform-origin: 186.88px 293.36px;" class="animable"></circle></g><g id="elasfh74ddiw6"><g style="opacity: 0.1; transform-origin: 221.385px 327.875px;" class="animable"><rect x="173.26" y="312.7" width="96.25" height="30.35" id="elyut9q895ei" class="animable" style="transform-origin: 221.385px 327.875px;"></rect></g></g><rect x="260.05" y="317.03" width="5.31" height="21.68" rx="1.3" style="fill: rgb(75, 42, 123); transform-origin: 262.705px 327.87px;" id="el8cyo0xydgu5" class="animable"></rect><g id="elmepxve2iykl"><rect x="249.1" y="317.03" width="5.31" height="21.68" rx="1.3" style="opacity: 0.1; transform-origin: 251.755px 327.87px;" class="animable"></rect></g><rect x="238.14" y="317.03" width="5.31" height="21.68" rx="1.3" style="fill: rgb(75, 42, 123); transform-origin: 240.795px 327.87px;" id="elzy29u9ahqb" class="animable"></rect><rect x="227.18" y="317.03" width="5.31" height="21.68" rx="1.3" style="fill: rgb(75, 42, 123); transform-origin: 229.835px 327.87px;" id="els14fsmfsir" class="animable"></rect><g id="eljk8zk8nd0ys"><path d="M200.83,323a3.5,3.5,0,1,1,3.5,3.51A3.5,3.5,0,0,1,200.83,323Z" style="fill: rgb(255, 255, 255); opacity: 0.3; transform-origin: 204.33px 323.01px;" class="animable"></path></g><g id="elpt1z0t5xc0p"><circle cx="214.34" cy="332.71" r="3.5" style="fill: rgb(255, 255, 255); opacity: 0.3; transform-origin: 214.34px 332.71px;" class="animable"></circle></g><g id="eleyvyz4tdnr"><path d="M210.84,323a3.5,3.5,0,1,1,3.5,3.51A3.5,3.5,0,0,1,210.84,323Z" style="opacity: 0.1; transform-origin: 214.34px 323.01px;" class="animable"></path></g><g id="elpn5fvoyet7"><circle cx="204.33" cy="332.71" r="3.5" style="opacity: 0.1; transform-origin: 204.33px 332.71px;" class="animable"></circle></g><g id="el7r85xqubgyk"><circle cx="186.88" cy="327.87" r="7.59" style="opacity: 0.1; transform-origin: 186.88px 327.87px;" class="animable"></circle></g><g id="elt79rxnuwflo"><g style="opacity: 0.1; transform-origin: 221.385px 362.385px;" class="animable"><rect x="173.26" y="347.21" width="96.25" height="30.35" id="ela8yf92333ds" class="animable" style="transform-origin: 221.385px 362.385px;"></rect></g></g><rect x="260.05" y="351.55" width="5.31" height="21.68" rx="1.3" style="fill: rgb(75, 42, 123); transform-origin: 262.705px 362.39px;" id="el47iq7a36513" class="animable"></rect><g id="elymj8f6zeyq"><rect x="249.1" y="351.55" width="5.31" height="21.68" rx="1.3" style="opacity: 0.1; transform-origin: 251.755px 362.39px;" class="animable"></rect></g><rect x="238.14" y="351.55" width="5.31" height="21.68" rx="1.3" style="fill: rgb(75, 42, 123); transform-origin: 240.795px 362.39px;" id="el4j2rbzmqis9" class="animable"></rect><rect x="227.18" y="351.55" width="5.31" height="21.68" rx="1.3" style="fill: rgb(75, 42, 123); transform-origin: 229.835px 362.39px;" id="el1rzewbdd5hu" class="animable"></rect><g id="el0z49d76ssdvp"><circle cx="204.33" cy="357.55" r="3.5" style="fill: rgb(255, 255, 255); opacity: 0.3; transform-origin: 204.33px 357.55px;" class="animable"></circle></g><g id="el972fzn48z3"><circle cx="214.34" cy="367.23" r="3.5" style="fill: rgb(255, 255, 255); opacity: 0.3; transform-origin: 214.34px 367.23px;" class="animable"></circle></g><g id="elilj8twkgfj8"><circle cx="214.34" cy="357.55" r="3.5" style="fill: rgb(255, 255, 255); opacity: 0.3; transform-origin: 214.34px 357.55px;" class="animable"></circle></g><g id="elesypdssuau"><circle cx="204.33" cy="367.23" r="3.5" style="opacity: 0.1; transform-origin: 204.33px 367.23px;" class="animable"></circle></g><g id="elslg606duxa"><circle cx="186.88" cy="362.39" r="7.59" style="fill: rgb(255, 255, 255); opacity: 0.3; transform-origin: 186.88px 362.39px;" class="animable"></circle></g><g id="elnd8pvcnf7e"><g style="opacity: 0.1; transform-origin: 221.385px 396.895px;" class="animable"><rect x="173.26" y="381.72" width="96.25" height="30.35" id="el7miscio5ipk" class="animable" style="transform-origin: 221.385px 396.895px;"></rect></g></g><rect x="260.05" y="386.06" width="5.31" height="21.68" rx="1.3" style="fill: rgb(75, 42, 123); transform-origin: 262.705px 396.9px;" id="elb5l6l5jh03a" class="animable"></rect><g id="elgijn2nej8o"><rect x="249.1" y="386.06" width="5.31" height="21.68" rx="1.3" style="opacity: 0.1; transform-origin: 251.755px 396.9px;" class="animable"></rect></g><rect x="238.14" y="386.06" width="5.31" height="21.68" rx="1.3" style="fill: rgb(75, 42, 123); transform-origin: 240.795px 396.9px;" id="elp3l4pe0v4gt" class="animable"></rect><rect x="227.18" y="386.06" width="5.31" height="21.68" rx="1.3" style="fill: rgb(75, 42, 123); transform-origin: 229.835px 396.9px;" id="el6a5ykrf9vxi" class="animable"></rect><g id="elro3bhinmm9"><circle cx="204.33" cy="392.06" r="3.5" style="fill: rgb(255, 255, 255); opacity: 0.3; transform-origin: 204.33px 392.06px;" class="animable"></circle></g><g id="eldolh5dsalec"><circle cx="214.34" cy="401.74" r="3.5" style="fill: rgb(255, 255, 255); opacity: 0.3; transform-origin: 214.34px 401.74px;" class="animable"></circle></g><g id="eln7kmzc5k1s"><circle cx="214.34" cy="392.06" r="3.5" style="fill: rgb(255, 255, 255); opacity: 0.3; transform-origin: 214.34px 392.06px;" class="animable"></circle></g><g id="elidcjkf1lgos"><circle cx="204.33" cy="401.74" r="3.5" style="opacity: 0.1; transform-origin: 204.33px 401.74px;" class="animable"></circle></g><g id="eljf1k5arv9ho"><circle cx="186.88" cy="396.9" r="7.59" style="fill: rgb(255, 255, 255); opacity: 0.3; transform-origin: 186.88px 396.9px;" class="animable"></circle></g><polygon points="172.76 175.09 247.06 175.09 257.51 217.65 183.21 217.65 172.76 175.09" style="fill: rgb(75, 42, 123); transform-origin: 215.135px 196.37px;" id="ell2toinkj6gj" class="animable"></polygon><polygon points="204.21 217.65 204.5 220 283.88 220 283.59 217.65 204.21 217.65" style="fill: rgb(75, 42, 123); transform-origin: 244.045px 218.825px;" id="eln6fj73uebz" class="animable"></polygon><polygon points="244.84 175.09 255.29 217.65 255.3 217.65 255.59 220 183.5 220 183.21 217.65 172.76 175.09 244.84 175.09" style="fill: rgb(75, 42, 123); transform-origin: 214.175px 197.545px;" id="el9darh0xbl1s" class="animable"></polygon><g id="elgqodnwmgcgp"><polygon points="244.84 175.09 255.29 217.65 255.3 217.65 255.59 220 183.5 220 183.21 217.65 172.76 175.09 244.84 175.09" style="fill: rgb(255, 255, 255); opacity: 0.6; transform-origin: 214.175px 197.545px;" class="animable"></polygon></g><g id="ellluoccfxc1p"><path d="M214.9,149.91l-.47-.24c-.6-.31-14.63-7.78-16.62-17.59A86.44,86.44,0,0,1,196.35,113l0-.88.88-.06c.11,0,10.57-.83,17.32-3l.31-.1.3.1c6.75,2.15,17.21,3,17.32,3l.88.06,0,.88A86.44,86.44,0,0,1,232,132.08c-2,9.81-16,17.28-16.62,17.59ZM198.32,114a85.83,85.83,0,0,0,1.46,17.7c1.6,7.94,12.69,14.6,15.12,16,2.42-1.36,13.51-8,15.11-16a85.1,85.1,0,0,0,1.46-17.7,92.16,92.16,0,0,1-16.57-2.89A92.39,92.39,0,0,1,198.32,114Z" style="fill: rgb(75, 42, 123); opacity: 0.3; transform-origin: 214.863px 129.435px;" class="animable"></path></g><path d="M214.9,144.35c-4.19-2.56-11.25-7.86-12.33-13.23a79.84,79.84,0,0,1-1.42-14.56,90.74,90.74,0,0,0,13.75-2.5,90.41,90.41,0,0,0,13.74,2.5,80.51,80.51,0,0,1-1.42,14.56C226.14,136.49,219.08,141.79,214.9,144.35Z" style="fill: rgb(75, 42, 123); transform-origin: 214.895px 129.205px;" id="elzkqkazmgja" class="animable"></path><g id="el077h7pdr42nw"><path d="M143.91,416.24h-2V182.56a21.73,21.73,0,0,1,21.7-21.7h44.6a5.7,5.7,0,0,0,5.68-5.69h2a7.69,7.69,0,0,1-7.68,7.69h-44.6a19.72,19.72,0,0,0-19.7,19.7Z" style="fill: rgb(75, 42, 123); opacity: 0.3; transform-origin: 178.9px 285.705px;" class="animable"></path></g></g><defs>     <filter id="active" height="200%">         <feMorphology in="SourceAlpha" result="DILATED" operator="dilate" radius="2"></feMorphology>                <feFlood flood-color="#32DFEC" flood-opacity="1" result="PINK"></feFlood>        <feComposite in="PINK" in2="DILATED" operator="in" result="OUTLINE"></feComposite>        <feMerge>            <feMergeNode in="OUTLINE"></feMergeNode>            <feMergeNode in="SourceGraphic"></feMergeNode>        </feMerge>    </filter>    <filter id="hover" height="200%">        <feMorphology in="SourceAlpha" result="DILATED" operator="dilate" radius="2"></feMorphology>                <feFlood flood-color="#ff0000" flood-opacity="0.5" result="PINK"></feFlood>        <feComposite in="PINK" in2="DILATED" operator="in" result="OUTLINE"></feComposite>        <feMerge>            <feMergeNode in="OUTLINE"></feMergeNode>            <feMergeNode in="SourceGraphic"></feMergeNode>        </feMerge>            <feColorMatrix type="matrix" values="0   0   0   0   0                0   1   0   0   0                0   0   0   0   0                0   0   0   1   0 "></feColorMatrix>    </filter></defs></svg>